<?xml version="1.0" encoding="UTF-8" standalone="no"?>
<!-- Created with Inkscape (http://www.inkscape.org/) -->

<svg
   width="512"
   height="512"
   viewBox="0 0 512 512"
   version="1.1"
   id="svg1"
   inkscape:version="1.4.2 (ebf0e940d0, 2025-05-08)"
   sodipodi:docname="farer_companion_fg.svg"
   xmlns:inkscape="http://www.inkscape.org/namespaces/inkscape"
   xmlns:sodipodi="http://sodipodi.sourceforge.net/DTD/sodipodi-0.dtd"
   xmlns:xlink="http://www.w3.org/1999/xlink"
   xmlns="http://www.w3.org/2000/svg"
   xmlns:svg="http://www.w3.org/2000/svg">
  <sodipodi:namedview
     id="namedview1"
     pagecolor="#ffffff"
     bordercolor="#999999"
     borderopacity="1"
     inkscape:showpageshadow="2"
     inkscape:pageopacity="0"
     inkscape:pagecheckerboard="0"
     inkscape:deskcolor="#d1d1d1"
     inkscape:document-units="px"
     inkscape:zoom="1.59375"
     inkscape:cx="191.68627"
     inkscape:cy="259.76471"
     inkscape:window-width="1920"
     inkscape:window-height="1043"
     inkscape:window-x="0"
     inkscape:window-y="0"
     inkscape:window-maximized="1"
     inkscape:current-layer="svg1" />
  <defs
     id="defs1">
    <linearGradient
       id="linearGradient40"
       inkscape:collect="always">
      <stop
         style="stop-color:#ff9100;stop-opacity:1;"
         offset="0"
         id="stop40" />
      <stop
         style="stop-color:#ffe800;stop-opacity:1;"
         offset="1"
         id="stop41" />
    </linearGradient>
    <linearGradient
       id="linearGradient38"
       inkscape:collect="always">
      <stop
         style="stop-color:#690870;stop-opacity:1;"
         offset="0"
         id="stop38" />
      <stop
         style="stop-color:#9700f4;stop-opacity:1;"
         offset="1"
         id="stop39" />
    </linearGradient>
    <linearGradient
       inkscape:collect="always"
       xlink:href="#linearGradient38"
       id="linearGradient39"
       x1="84.999999"
       y1="255.99999"
       x2="400.10403"
       y2="255.99999"
       gradientUnits="userSpaceOnUse" />
    <linearGradient
       inkscape:collect="always"
       xlink:href="#linearGradient40"
       id="linearGradient41"
       x1="169.06967"
       y1="256"
       x2="342.93047"
       y2="256"
       gradientUnits="userSpaceOnUse" />
  </defs>
  <g
     inkscape:label="Layer 1"
     id="layer1"
     style="display:inline">
    <path
       d="m 216.26039,178.48054 q 0,-3.91927 -0.63802,-6.5625 -0.54687,-2.73437 -2.1875,-4.46614 -1.54947,-1.73177 -4.37499,-2.46094 -2.82552,-0.82031 -7.29166,-0.82031 -2.91667,0 -6.5625,0.36458 -3.64583,0.27344 -8.29426,0.82032 L 186,156.87899 q 8.93229,-1.36718 16.58853,-2.36979 7.65624,-1.09375 14.30988,-1.82291 6.74479,-0.82032 12.57812,-1.1849 5.83332,-0.36458 11.02863,-0.36458 14.94791,0 28.07289,-0.18229 13.12499,-0.27344 23.24217,-0.45573 10.11718,-0.27344 16.58853,-0.45573 6.47135,-0.27344 8.02083,-0.27344 4.1927,0 6.3802,2.00521 2.27864,1.91406 2.27864,6.01562 0,1.64062 -0.36458,6.3802 -0.27344,4.73958 -0.82031,10.93749 -0.45573,6.10677 -1.09375,12.9427 -0.63802,6.83593 -1.36719,12.7604 l -8.74999,-0.27343 q 0.18229,-3.46354 0.27344,-6.47135 0.0911,-3.00781 0.0911,-5.65104 0,-7.65624 -0.91145,-12.39582 -0.91146,-4.83073 -3.3724,-7.5651 -2.36979,-2.73437 -6.56249,-3.73697 -4.19271,-1.00261 -10.66406,-1.09375 -4.73957,-0.0911 -8.84113,-0.0911 -4.01042,-0.0911 -7.83854,-0.0911 h -18.68488 q -1.64062,0 -3.37239,0 -1.64062,0 -3.46354,0.0911 -1.82291,0 -4.01041,0.0911 -2.1875,0 -4.83073,0.0911 -0.36458,15.40364 -0.91145,37.18747 -0.54688,21.69269 -1.27605,48.48954 11.84895,0.54688 21.14582,0.82031 9.38801,0.18229 17.1354,0.18229 9.47916,0 16.77082,-0.54687 7.38281,-0.63802 13.9453,-1.91406 1.45833,4.01041 1.45833,7.20051 0,2.64323 -1.64062,4.46615 -1.64062,1.82291 -4.73958,2.91666 -3.00781,1.09375 -7.38281,1.64062 -4.28385,0.45573 -9.66145,0.45573 -9.5703,0 -21.69269,-1.0026 -12.03124,-1.09375 -25.7031,-2.64323 -0.36458,11.21093 -0.82031,23.33332 -0.36458,12.12238 -0.72917,24.60935 -0.36458,12.48697 -0.82031,25.24737 -0.36458,12.76041 -0.72916,25.33852 l -21.60155,2.73437 -1.64062,-0.18229 q 1.09375,-26.15883 1.91406,-49.58329 0.91146,-23.42446 1.45833,-45.57287 0.63802,-22.14842 0.91146,-43.84111 0.36458,-21.78384 0.36458,-44.57027 z"
       id="text1"
       style="font-size:373.333px;font-family:Gabriola;-inkscape-font-specification:Gabriola;fill:url(#linearGradient41);stroke-width:0;paint-order:markers stroke fill"
       aria-label="F" />
    <path
       d="m 269.35352,79.193359 q 19.18945,0 35.44921,3.515625 16.40625,3.515625 28.27149,8.642578 11.86523,5.126954 18.60351,10.986328 6.73829,5.85938 6.73829,10.69336 0,10.10742 -0.73243,26.2207 -0.73242,16.11328 -1.90429,38.96485 l -12.74414,-0.43946 q 0.14648,-2.05078 0.14648,-3.80859 0.14648,-1.9043 0.14648,-3.95508 -0.14648,-10.10742 -2.34375,-19.18945 -2.05078,-9.22852 -7.61718,-17.57813 -5.85938,-8.34961 -14.0625,-14.79492 -8.05664,-6.44531 -17.72461,-10.83984 -9.66797,-4.39453 -20.6543,-6.5918 -10.98633,-2.343749 -22.41211,-2.343749 -19.6289,0 -35.74219,6.152349 -15.96679,6.00585 -28.56445,16.8457 -12.59766,10.69336 -21.97266,25.48828 -9.22851,14.64844 -15.38085,31.93359 -6.00586,17.28516 -9.08204,36.32813 -2.92968,19.04297 -2.92968,38.52539 0,22.99805 3.80859,43.35937 3.80859,20.36133 10.83984,37.5 7.03125,17.13868 16.99219,30.76172 9.96094,13.62305 22.26563,23.14453 12.45117,9.375 26.80664,14.35547 14.50195,4.98047 30.46875,4.98047 11.13281,0 22.85156,-2.34375 11.86523,-2.49023 24.02344,-7.61719 12.1582,-5.27343 24.46289,-13.18359 12.45117,-8.05664 24.75586,-19.18945 1.17187,0.58593 2.63672,1.46484 1.61132,0.87891 2.92968,2.05078 1.31836,1.02539 2.19727,2.34375 1.02539,1.31836 1.02539,2.63672 0,0.87891 -1.17188,2.49023 -14.35546,15.82032 -29.0039,26.51368 -14.64844,10.69336 -29.44336,17.28515 -14.79492,6.5918 -29.88281,9.375 -14.94141,2.92969 -29.88282,2.92969 -19.77539,0 -37.79296,-5.56641 -17.8711,-5.41992 -33.25196,-15.67382 -15.38086,-10.25391 -27.83203,-24.75586 -12.45117,-14.64844 -21.24023,-32.8125 -8.78907,-18.16407 -13.62305,-39.4043 -4.6875,-21.38672 -4.6875,-45.11719 0,-22.85156 4.54102,-45.84961 4.6875,-23.14453 13.76953,-44.23828 9.22851,-21.09375 22.99804,-39.4043 13.91602,-18.31054 32.37305,-31.7871 18.45703,-13.623051 41.60156,-21.240239 23.14453,-7.763672 50.97657,-7.763672 z"
       id="text2"
       style="font-size:600px;font-family:Gabriola;-inkscape-font-specification:Gabriola;fill:url(#linearGradient39);stroke-width:0;paint-order:markers stroke fill"
       aria-label="C" />
    <path
       id="path41"
       style="fill:none;stroke:#ff3c00;stroke-width:20;paint-order:markers stroke fill"
       d="M 470.99998,256 A 214.99998,214.99998 0 0 1 256,470.99998 214.99998,214.99998 0 0 1 41.000015,256 214.99998,214.99998 0 0 1 256,41.000015 214.99998,214.99998 0 0 1 470.99998,256 Z" />
  </g>
</svg>
